<?xml version="1.0" encoding="UTF-8" standalone="no"?>
<svg
   version="1.0"
   width="1200pt"
   height="1200pt"
   viewBox="0 0 1200 1200"
   preserveAspectRatio="xMidYMid meet"
   id="svg3053"
   sodipodi:docname="django.svg"
   inkscape:version="1.1.2 (76b9e6a115, 2022-02-25)"
   xmlns:inkscape="http://www.inkscape.org/namespaces/inkscape"
   xmlns:sodipodi="http://sodipodi.sourceforge.net/DTD/sodipodi-0.dtd"
   xmlns="http://www.w3.org/2000/svg"
   xmlns:svg="http://www.w3.org/2000/svg">
  <defs
     id="defs3057" />
  <sodipodi:namedview
     id="namedview3055"
     pagecolor="#ffffff"
     bordercolor="#666666"
     borderopacity="1.0"
     inkscape:pageshadow="2"
     inkscape:pageopacity="0.0"
     inkscape:pagecheckerboard="0"
     inkscape:document-units="pt"
     showgrid="false"
     inkscape:zoom="0.40594358"
     inkscape:cx="974.27333"
     inkscape:cy="638.0197"
     inkscape:window-width="1920"
     inkscape:window-height="1024"
     inkscape:window-x="1080"
     inkscape:window-y="450"
     inkscape:window-maximized="1"
     inkscape:current-layer="g3051" />
  <metadata
     id="metadata3045">
Created by potrace 1.16, written by Peter Selinger 2001-2019
</metadata>
  <g
     transform="matrix(0.23934239,0,0,-0.23934239,-57.845865,1258.5242)"
     fill="#000000"
     stroke="none"
     id="g3051">
    <path
       d="m 2460,5243 c -94,-11 -265,-48 -374,-80 -67,-19 -144,-41 -173,-49 -29,-7 -104,-38 -168,-69 -64,-30 -119,-55 -124,-55 -5,0 -48,-25 -97,-55 -49,-30 -108,-64 -130,-75 -23,-12 -59,-36 -80,-54 -22,-18 -59,-46 -84,-62 -104,-67 -402,-364 -465,-463 -12,-20 -41,-58 -64,-86 -22,-27 -50,-68 -61,-90 -11,-22 -45,-80 -75,-129 -30,-49 -55,-92 -55,-97 0,-5 -25,-60 -55,-124 -31,-64 -62,-139 -69,-168 -8,-29 -30,-106 -49,-173 -75,-256 -82,-313 -82,-664 0,-351 7,-408 82,-664 19,-67 41,-144 49,-173 7,-29 38,-104 69,-168 30,-64 55,-119 55,-124 0,-4 24,-47 53,-94 28,-48 63,-107 77,-132 56,-101 258,-344 384,-462 48,-46 126,-113 174,-150 48,-37 105,-82 126,-100 22,-18 47,-33 56,-33 9,0 25,-8 36,-18 28,-26 161,-104 212,-124 24,-9 49,-21 55,-26 17,-14 196,-89 232,-97 17,-4 81,-23 144,-41 241,-73 338,-86 633,-92 276,-4 355,1 539,38 110,23 343,90 438,126 105,41 302,140 374,188 37,25 71,46 75,46 26,0 283,210 403,329 120,121 329,377 329,403 0,5 18,34 39,66 43,64 146,266 190,376 39,95 107,326 131,445 37,184 42,263 38,539 -5,293 -19,391 -89,622 -17,58 -37,128 -45,157 -12,48 -50,134 -141,320 -19,40 -55,102 -79,138 -24,36 -44,69 -44,73 0,17 -142,200 -244,315 -122,137 -389,364 -501,427 -25,14 -84,49 -132,78 -47,28 -90,52 -94,52 -5,0 -60,25 -124,55 -64,31 -139,62 -168,69 -29,8 -99,28 -157,45 -58,18 -161,44 -230,58 -116,24 -146,26 -415,28 -159,2 -306,1 -325,-2 z m 488,-2230 -3,-1247 -100,-18 c -230,-40 -350,-51 -565,-52 -225,0 -308,9 -465,56 -211,62 -380,195 -464,365 -129,258 -125,640 7,899 66,129 208,271 337,336 82,42 209,84 297,98 76,12 355,9 396,-5 l 22,-7 v 404 c 0,223 3,408 7,411 3,4 125,7 270,7 h 263 z m 862,962 v -275 h -270 -270 v 275 275 h 270 270 z m -5,-1330 c 0,-590 -3,-805 -13,-884 -48,-374 -190,-600 -472,-750 l -80,-42 -158,75 c -86,41 -196,92 -244,115 -49,22 -88,43 -88,48 0,5 37,27 83,50 179,90 301,217 357,371 68,187 80,367 80,1200 v 602 l 268,-2 267,-3 z"
       id="path3047" />
    <path
       d="m 2124,3016 c -217,-50 -323,-212 -311,-476 14,-299 176,-430 502,-405 l 95,7 v 428 428 l -32,11 c -53,19 -187,22 -254,7 z"
       id="path3049"
       style="fill:#092e20;fill-opacity:1" />
    <path
       d="m 2460,5243 c -94,-11 -265,-48 -374,-80 -67,-19 -144,-41 -173,-49 -29,-7 -104,-38 -168,-69 -64,-30 -119,-55 -124,-55 -5,0 -48,-25 -97,-55 -49,-30 -108,-64 -130,-75 -23,-12 -59,-36 -80,-54 -22,-18 -59,-46 -84,-62 -104,-67 -402,-364 -465,-463 -12,-20 -41,-58 -64,-86 -22,-27 -50,-68 -61,-90 -11,-22 -45,-80 -75,-129 -30,-49 -55,-92 -55,-97 0,-5 -25,-60 -55,-124 -31,-64 -62,-139 -69,-168 -8,-29 -30,-106 -49,-173 -75,-256 -82,-313 -82,-664 0,-351 7,-408 82,-664 19,-67 41,-144 49,-173 7,-29 38,-104 69,-168 30,-64 55,-119 55,-124 0,-4 24,-47 53,-94 28,-48 63,-107 77,-132 56,-101 258,-344 384,-462 48,-46 126,-113 174,-150 48,-37 105,-82 126,-100 22,-18 47,-33 56,-33 9,0 25,-8 36,-18 28,-26 161,-104 212,-124 24,-9 49,-21 55,-26 17,-14 196,-89 232,-97 17,-4 81,-23 144,-41 241,-73 338,-86 633,-92 276,-4 355,1 539,38 110,23 343,90 438,126 105,41 302,140 374,188 37,25 71,46 75,46 26,0 283,210 403,329 120,121 329,377 329,403 0,5 18,34 39,66 43,64 146,266 190,376 39,95 107,326 131,445 37,184 42,263 38,539 -5,293 -19,391 -89,622 -17,58 -37,128 -45,157 -12,48 -50,134 -141,320 -19,40 -55,102 -79,138 -24,36 -44,69 -44,73 0,17 -142,200 -244,315 -122,137 -389,364 -501,427 -25,14 -84,49 -132,78 -47,28 -90,52 -94,52 -5,0 -60,25 -124,55 -64,31 -139,62 -168,69 -29,8 -99,28 -157,45 -58,18 -161,44 -230,58 -116,24 -146,26 -415,28 -159,2 -306,1 -325,-2 z m 488,-2230 -3,-1247 -100,-18 c -230,-40 -350,-51 -565,-52 -225,0 -308,9 -465,56 -211,62 -380,195 -464,365 -129,258 -125,640 7,899 66,129 208,271 337,336 82,42 209,84 297,98 76,12 355,9 396,-5 l 22,-7 v 404 c 0,223 3,408 7,411 3,4 125,7 270,7 h 263 z m 862,962 v -275 h -270 -270 v 275 275 h 270 270 z m -5,-1330 c 0,-590 -3,-805 -13,-884 -48,-374 -190,-600 -472,-750 l -80,-42 -158,75 c -86,41 -196,92 -244,115 -49,22 -88,43 -88,48 0,5 37,27 83,50 179,90 301,217 357,371 68,187 80,367 80,1200 v 602 l 268,-2 267,-3 z"
       id="path3101" />
    <path
       d="m 2460,5243 c -94,-11 -265,-48 -374,-80 -67,-19 -144,-41 -173,-49 -29,-7 -104,-38 -168,-69 -64,-30 -119,-55 -124,-55 -5,0 -48,-25 -97,-55 -49,-30 -108,-64 -130,-75 -23,-12 -59,-36 -80,-54 -22,-18 -59,-46 -84,-62 -104,-67 -402,-364 -465,-463 -12,-20 -41,-58 -64,-86 -22,-27 -50,-68 -61,-90 -11,-22 -45,-80 -75,-129 -30,-49 -55,-92 -55,-97 0,-5 -25,-60 -55,-124 -31,-64 -62,-139 -69,-168 -8,-29 -30,-106 -49,-173 -75,-256 -82,-313 -82,-664 0,-351 7,-408 82,-664 19,-67 41,-144 49,-173 7,-29 38,-104 69,-168 30,-64 55,-119 55,-124 0,-4 24,-47 53,-94 28,-48 63,-107 77,-132 56,-101 258,-344 384,-462 48,-46 126,-113 174,-150 48,-37 105,-82 126,-100 22,-18 47,-33 56,-33 9,0 25,-8 36,-18 28,-26 161,-104 212,-124 24,-9 49,-21 55,-26 17,-14 196,-89 232,-97 17,-4 81,-23 144,-41 241,-73 338,-86 633,-92 276,-4 355,1 539,38 110,23 343,90 438,126 105,41 302,140 374,188 37,25 71,46 75,46 26,0 283,210 403,329 120,121 329,377 329,403 0,5 18,34 39,66 43,64 146,266 190,376 39,95 107,326 131,445 37,184 42,263 38,539 -5,293 -19,391 -89,622 -17,58 -37,128 -45,157 -12,48 -50,134 -141,320 -19,40 -55,102 -79,138 -24,36 -44,69 -44,73 0,17 -142,200 -244,315 -122,137 -389,364 -501,427 -25,14 -84,49 -132,78 -47,28 -90,52 -94,52 -5,0 -60,25 -124,55 -64,31 -139,62 -168,69 -29,8 -99,28 -157,45 -58,18 -161,44 -230,58 -116,24 -146,26 -415,28 -159,2 -306,1 -325,-2 z m 488,-2230 -3,-1247 -100,-18 c -230,-40 -350,-51 -565,-52 -225,0 -308,9 -465,56 -211,62 -380,195 -464,365 -129,258 -125,640 7,899 66,129 208,271 337,336 82,42 209,84 297,98 76,12 355,9 396,-5 l 22,-7 v 404 c 0,223 3,408 7,411 3,4 125,7 270,7 h 263 z m 862,962 v -275 h -270 -270 v 275 275 h 270 270 z m -5,-1330 c 0,-590 -3,-805 -13,-884 -48,-374 -190,-600 -472,-750 l -80,-42 -158,75 c -86,41 -196,92 -244,115 -49,22 -88,43 -88,48 0,5 37,27 83,50 179,90 301,217 357,371 68,187 80,367 80,1200 v 602 l 268,-2 267,-3 z"
       id="path3103"
       style="fill:#092e20;fill-opacity:1" />
  </g>
</svg>
