<svg version="1.0" viewBox="0 0 400 170" xmlns="http://www.w3.org/2000/svg">
 <title>Électricité de France logo</title>
 <g transform="matrix(9.0455 0 0 -9.0394 -2243.2 347.08)">
  <path d="m256.35 25.547c-0.15192-0.16032-0.56545-0.21936-0.68162-0.40321-0.17712-0.27745-0.58417-0.90938-0.90194-1.2103-1.0255-0.97394-3.2214-1.4633-4.3042-0.53329-0.071-0.0048-0.03-0.04608 0.0554-0.31225 0.0787-0.50353 0.48457-1.6858 0.33456-1.9875 0.0977-0.33577 0.19897-0.21288 0.38353-0.39937 0.12577-0.12576 0.17713-0.45481 0.32161-0.54385 0.16488 0.01128 0.33001 0.02352 0.49489 0.0348 0.0293-0.09192 0.061-0.18384 0.09-0.27769 0.21097 0.01512 0.42385 0.03096 0.63578 0.04608 0.11904-0.02736 0.47905-0.21288 0.58489-0.24193 0.23545 0.0168 0.47065 0.03288 0.70514 0.04872 0.53905-0.14352 1.0097 0.0816 1.4643 0.38905 0.25321 0.16968 0.53065 0.14256 0.75578 0.33481 0.32617 0.28033 0.77066 0.82682 0.97874 1.2055 0.51001 0.92618 0.33649 3.1462-0.12552 3.6949-0.18097 0.19776-0.39481 0.20136-0.7913 0.15552m4.2656 0.60841c-0.38257-0.29257-0.54289-0.22032-0.76682-0.67226-0.0235 0 0.0336-0.06744 0.0113-0.06744 0.22777-0.45553 0.75002-0.63842 1.1343-0.9581 0.11904-0.10128 0.44353-0.66386 0.59737-0.70418 0.17328-0.20616 0.28585-0.77714 0.39937-0.77714 0.11712-0.16032-0.0103-0.53809 0.10488-0.68522 7e-3 -0.67706-0.0862-0.72386-0.20424-0.85418 0-0.0468 0.0646-0.16968 0.0646-0.21552 0.0319-0.03192 0.30385-0.22704 0.42193-0.20352 0.36841-0.01032 1.8778-1.1887 1.9978-1.4158 1.0829-0.08136 1.0042 0.2496 1.7513 0.56641 0.20161 0.08712 0.36289 0.0046 0.4949 0.14256 0.13896 0.14136 0.15 0.42097 0.2832 0.56617 0.0178 2.6636-3.6056 5.1863-6.2898 5.2782m2.941 5.6279c-1.3416-0.20136-2.162-0.63002-2.6691-0.98066-0.35448-0.24744-0.45745-0.41233-0.53257-0.51649-0.0778-0.10392-0.12936-0.33385-0.0919-0.57649 0.0394-0.24 0.138-0.49609 0.34705-0.63937 1.6472 0.12192 4.5085 0.22584 5.0653-1.158 0.029-0.19296 0.0732-0.30937 0.0768-0.35521 0.54577 0.13512 0.1464 0.08712 0.95066-0.0384 0.18384-0.02904 0.63769 0.0732 0.93866 0.14712 0.1368 0.03192 0.21456 0.15576 0.21456 0.15576s-0.0262 0.132-0.0187 0.20424c0 0 0.28225-0.0216 0.39745 0.06744 0.76226 0.12288 0.36193 0.48097 0.72098 0.88514-0.21553 2.5875-2.8707 3.1885-5.3992 2.8049m-10.216-4.7175c0.29521 0.07608 0.79778 0.11544 1.0611 0.24648 0.42 0.21 1.862 1.218 1.4026 2.0393-0.14065 1.7297-2.2284 0.26809-3.1182 0.87458-0.89906 0.11616-1.9097 1.8168-2.1807 2.5462-0.10489 0.28801-0.0619 0.1896-0.20617 0.41737 9.6e-4 0.02328-0.0919-0.07872-0.091-0.05544-0.26257-0.30553-0.21745-0.57361-0.25873-1.32-0.11808 0.0077-0.23544 0.01416-0.35352 0.02256-0.0226-0.27097-0.0497-0.41809-0.17617-0.55777-0.0254-0.04608-0.0526-0.09-0.0787-0.1368-0.22417 0.07488-0.1116-0.03096-0.20257 0.15648-0.82777-0.04224-0.76705-0.87482-1.1475-1.3472 0.0168-1.5545 3.0918-3.4707 5.3495-2.8858m5.9908 8.4489c0.071 0.58705-0.0161 1.4448 0.44713 1.8488 0.13584 0.62641 1.1223 0.48001 0.96842 0.87938-0.0955 0.24961-0.55873 0.13032-0.74618 0.08448-0.14256-0.03384-1.4945-0.46129-2.0139-0.51937-0.22033 0.06096-0.44065 0.12192-0.66002 0.18384-0.84938-0.11448-1.3388-0.78938-1.8104-1.3258-0.39553-0.44905-0.93194-1.5507-0.50521-2.2097-0.0235-0.14352-0.048-0.28777-0.0713-0.43225l0.96362-1.4081c0.33289-0.23904 0.37705-0.41617 0.73514-0.65162 0.0739-0.11064 0.14712-0.22128 0.22128-0.33265 0.29233-0.19224 1.1568-0.19512 1.3013-0.06936 1.3904-0.1296 1.2394 2.684 1.68 3.2756-0.0554 0.26521-0.28897 0.54097-0.51001 0.67682" fill="#f1471c" fill-rule="evenodd"/>
  <path d="m281.7 25.089c1.231 0 2.2323 0.40681 2.2323 2.581 0 1.8497-1.0013 2.4646-2.2323 2.4646h-0.64585v-5.0456zm0.65257 6.5121c2.2285 0 3.7369-1.4091 3.7369-3.931 0-3.1688-2.071-4.1072-4.2421-4.1072h-2.9055c0.0103 0.17616 0 0.6449 0 1.2327v5.5736c0 0.58681 0.0103 0.96194 0 1.2319"/>
  <path d="m289.25 24.795c0-0.58777 0.0293-1.2329 0.0293-1.2329h-2.1555s0.0142 0.64514 0.0142 1.2329v5.5746c0 0.58681-0.0142 1.2307-0.0142 1.2307h5.0956v-1.5552s-1.1393 0.02904-1.5255 0.02904h-1.4439v-1.6191l1.4439-0.01488c0.27001 0 1.2 0.01488 1.2 0.01488v-1.4813s-0.8249 0.02256-1.2 0.02256l-1.4439-0.0084"/>
  <path d="m272.84 28.563c0.0319 0.46513 0.19776 1.5452 1.3724 1.5452 1.2039 0 1.2696-1.0145 1.2696-1.5516v-0.108s-0.8045-0.02232-1.2845-0.02232-1.3652 0.02232-1.3652 0.02232l8e-3 0.11448zm1.7933-3.3759c-1.0133 0-1.7933 0.68234-1.7933 1.7484v0.09096s1.8833 0.04584 2.522 0.04584c1.0855 0 1.5336 0.01032 2.3897 0.0216v0.60649c0 2.7385-1.1616 4.0717-3.5542 4.0717-1.1026 0-3.6666-0.41425-3.6666-4.2498 0-2.5594 1.2917-4.0885 3.5504-4.0885 1.7727 0 2.8611 0.45289 3.6498 1.0284-0.089 0.1332-0.74906 1.32-0.83546 1.4494-0.47353-0.36097-1.2543-0.72458-2.2623-0.72458"/>
  <path d="m256.35 25.547c-0.15192-0.16032-0.56545-0.21936-0.68162-0.40321-0.17712-0.27745-0.58417-0.90938-0.90194-1.2103-1.0255-0.97394-3.2214-1.4633-4.3042-0.53329-0.071-0.0048-0.03-0.04608 0.0554-0.31225 0.0787-0.50353 0.48457-1.6858 0.33456-1.9875 0.0977-0.33577 0.19897-0.21288 0.38353-0.39937 0.12577-0.12576 0.17713-0.45481 0.32161-0.54385 0.16488 0.01128 0.33001 0.02352 0.49489 0.0348 0.0293-0.09192 0.061-0.18384 0.09-0.27769 0.21097 0.01512 0.42385 0.03096 0.63578 0.04608 0.11904-0.02736 0.47905-0.21288 0.58489-0.24193 0.23545 0.0168 0.47065 0.03288 0.70514 0.04872 0.53905-0.14352 1.0097 0.0816 1.4643 0.38905 0.25321 0.16968 0.53065 0.14256 0.75578 0.33481 0.32617 0.28033 0.77066 0.82682 0.97874 1.2055 0.51001 0.92618 0.33649 3.1462-0.12552 3.6949-0.18097 0.19776-0.39481 0.20136-0.7913 0.15552m4.2656 0.60841c-0.38257-0.29257-0.54289-0.22032-0.76682-0.67226-0.0235 0 0.0336-0.06744 0.0113-0.06744 0.22777-0.45553 0.75002-0.63842 1.1343-0.9581 0.11904-0.10128 0.44353-0.66386 0.59737-0.70418 0.17328-0.20616 0.28585-0.77714 0.39937-0.77714 0.11712-0.16032-0.0103-0.53809 0.10488-0.68522 7e-3 -0.67706-0.0862-0.72386-0.20424-0.85418 0-0.0468 0.0646-0.16968 0.0646-0.21552 0.0319-0.03192 0.30385-0.22704 0.42193-0.20352 0.36841-0.01032 1.8778-1.1887 1.9978-1.4158 1.0829-0.08136 1.0042 0.2496 1.7513 0.56641 0.20161 0.08712 0.36289 0.0046 0.4949 0.14256 0.13896 0.14136 0.15 0.42097 0.2832 0.56617 0.0178 2.6636-3.6056 5.1863-6.2898 5.2782m2.941 5.6279c-1.3416-0.20136-2.162-0.63002-2.6691-0.98066-0.35448-0.24744-0.45745-0.41233-0.53257-0.51649-0.0778-0.10392-0.12936-0.33385-0.0919-0.57649 0.0394-0.24 0.138-0.49609 0.34705-0.63937 1.6472 0.12192 4.5085 0.22584 5.0653-1.158 0.029-0.19296 0.0732-0.30937 0.0768-0.35521 0.54577 0.13512 0.1464 0.08712 0.95066-0.0384 0.18384-0.02904 0.63769 0.0732 0.93866 0.14712 0.1368 0.03192 0.21456 0.15576 0.21456 0.15576s-0.0262 0.132-0.0187 0.20424c0 0 0.28225-0.0216 0.39745 0.06744 0.76226 0.12288 0.36193 0.48097 0.72098 0.88514-0.21553 2.5875-2.8707 3.1885-5.3992 2.8049m-10.216-4.7175c0.29521 0.07608 0.79778 0.11544 1.0611 0.24648 0.42 0.21 1.862 1.218 1.4026 2.0393-0.14065 1.7297-2.2284 0.26809-3.1182 0.87458-0.89906 0.11616-1.9097 1.8168-2.1807 2.5462-0.10489 0.28801-0.0619 0.1896-0.20617 0.41737 9.6e-4 0.02328-0.0919-0.07872-0.091-0.05544-0.26257-0.30553-0.21745-0.57361-0.25873-1.32-0.11808 0.0077-0.23544 0.01416-0.35352 0.02256-0.0226-0.27097-0.0497-0.41809-0.17617-0.55777-0.0254-0.04608-0.0526-0.09-0.0787-0.1368-0.22417 0.07488-0.1116-0.03096-0.20257 0.15648-0.82777-0.04224-0.76705-0.87482-1.1475-1.3472 0.0168-1.5545 3.0918-3.4707 5.3495-2.8858m5.9908 8.4489c0.071 0.58705-0.0161 1.4448 0.44713 1.8488 0.13584 0.62641 1.1223 0.48001 0.96842 0.87938-0.0955 0.24961-0.55873 0.13032-0.74618 0.08448-0.14256-0.03384-1.4945-0.46129-2.0139-0.51937-0.22033 0.06096-0.44065 0.12192-0.66002 0.18384-0.84938-0.11448-1.3388-0.78938-1.8104-1.3258-0.39553-0.44905-0.93194-1.5507-0.50521-2.2097-0.0235-0.14352-0.048-0.28777-0.0713-0.43225l0.96362-1.4081c0.33289-0.23904 0.37705-0.41617 0.73514-0.65162 0.0739-0.11064 0.14712-0.22128 0.22128-0.33265 0.29233-0.19224 1.1568-0.19512 1.3013-0.06936 1.3904-0.1296 1.2394 2.684 1.68 3.2756-0.0554 0.26521-0.28897 0.54097-0.51001 0.67682" fill-rule="evenodd"/>
 </g>
</svg>
