<svg width="900" height="900" version="1.1" viewBox="0 0 900 900" xmlns="http://www.w3.org/2000/svg">
 <g>
  <g stroke="#000" stroke-width="1px">
   <path d="m71.627 359.88 4.7825-9.6877 82.1 0.6841-0.057 8.5797z"/>
   <path d="m62.643 379.22h3.5491l0.05618 40.895 79.194 0.17514 0.0175 9.4993-80.405-0.0997 0.73616 75.076 80.677 0.44099 0.51086-16.54 12.632-0.043 0.45114 25.143-122.62 0.1343-0.29188-74.94z"/>
   <path d="m275.74 378.07 12.196-0.14706 0.45806-27.217c-76.07-2.0493-105.16 0.9123-105.31 34.726-0.13411 29.217 16.47 38.648 58.793 50.559 38.23 10.759 42.608 15.275 42.508 40.338-0.0597 14.944-10.009 33.043-44.337 31.078-33.016-1.8898-50.637-29.195-50.626-29.771l-10.212 8.5468s22.183 32.847 69.508 32.137c22.1-0.33135 52.763-14.435 52.845-42.835 0.20923-72.458-101.22-41.243-102.45-86.297 1.4344-30.927 16.453-28.833 75.413-29.155l1.2157 18.037"/>
   <path d="m409.94 359.39 4.7825-9.6877 82.1 0.6841-0.057 8.5797z"/>
   <path d="m400.96 378.73h3.5491l0.0562 40.895 79.194 0.17514 0.0175 9.4993-80.405-0.0997 0.73616 75.076 80.677 0.44099 0.51086-16.54 12.632-0.043 0.45114 25.143-122.62 0.1343-0.29188-74.94z"/>
   <path d="m553.46 359.43 4.7825-9.6877 82.1 0.6841-0.057 8.5797z"/>
   <path d="m544.48 378.77h3.5491l0.0562 40.895 79.194 0.17514 0.0175 9.4993-80.405-0.0997 0.73615 75.076 80.677 0.44099 0.51086-16.54 12.632-0.043 0.45114 25.143-122.62 0.1343-0.29188-74.94z"/>
   <path d="m347.25 379.04h-1.6861l-27.339 60.484 0.36596 74.32 29.585-0.13865z"/>
   <path d="m319.33 322.69h28.698v28.728h-28.698z"/>
  </g>
  <g stroke-width="8">
   <path d="m704.19 354.22-23.529 0.0833 0.63279 155.23 23.776 0.16778" fill="none" stroke="#000"/>
   <path d="m835.41 354.71 23.529 0.0833-0.63279 155.23-23.776 0.16778" fill="none" stroke="#000"/>
   <rect x="727.68" y="350.53" width="11.099" height="11.116"/>
  </g>
  <g fill="none" stroke="#000">
   <path d="m717.71 391.67 16.422-0.0446" stroke-width="7.2"/>
   <path d="m734.45 486.08-0.43725-98.051" stroke-width="10.3"/>
   <path d="m786.3 371.1c-0.51367 28.134-0.78705 66.202-0.78705 66.202-0.0212 31.25-2.6836 53.831 35.645 44.478" stroke-width="10.1"/>
   <path d="m766.53 392.17 46.358-0.12259" stroke-width="7.7"/>
  </g>
 </g>
</svg>
