<svg width="500" height="230" version="1.1" viewBox="0 0 500 230" xmlns="http://www.w3.org/2000/svg">
 <g fill="none" stroke="#000" stroke-width="9.8442px">
  <path d="m55.017 80.764s-10.171-36.223-49.887 10.006"/>
  <path d="m5.2629 118.97-0.34091-51.444"/>
  <path d="m85.726 82.591c0.0401-9.7278 13.449-16.25 28.029-14.798 11.792 0.57095 27.566 4.6073 27.785 10.765l-0.74059 43.249"/>
  <path d="m140.15 90.238c-26.568-2.3994-55.471-0.23714-53.655 15.713-1.2921 14.038 23.155 17.249 53.643 1.85"/>
  <path d="m222.71 121.04 0.36145-79.87"/>
  <path d="m221.01 80.568c-20.071-15.044-50.186-24.83-55.01 7.691-0.11762 40.115 42.965 25.651 56.286 16.5"/>
  <path d="m272.63 35.988 0.33263 14.577"/>
  <path d="m249.07 69.368 27.752 0.23735-0.22733 48.223"/>
  <path d="m304.27 117.01-56.535 0.17224"/>
  <path d="m28.33 204.24 0.52116-80.853"/>
  <path d="m29.085 162.4c38.643-22.961 49.008-9.8386 52.097 12.567 2.1768 34.196-20.82 29.451-51.632 12.618"/>
  <path d="m121.46 156.93 33.601-15.419"/>
  <path d="m166.99 203.39c0.019-11.26-1.0168-21.185-6.8419-26.666-10.847-10.207-31.113-9.0374-41.457-0.78774-5.6928 4.5403-7.5656 13.224-7.439 22.269 0.61917 39.821 54.052 28.261 53.768 10.725"/>
  <path d="m111.58 198.25 57.031-0.15275"/>
  <path d="m249.6 148.21c0.29793 37.541 5.338 60.262-9.3503 70.468-12.803 8.8962-41.518 10.298-41.927-8.2715"/>
  <path d="m250.71 165.71c-47.727-27.494-52.632-4.5659-53.374 10.577 0.98381 34.12 26.508 25.582 52.627 13.962"/>
  <path d="m279.18 149.27c-0.012 32.21-0.65998 45.504 6.1792 50.308 6.0999 4.2851 29.081 0.48938 44.283-20.175"/>
  <path d="m330.71 204.32-1.0577-56.698"/>
  <path d="m358.48 152.5 27.569 0.31797 1.2307 46.87"/>
  <path d="m415.7 200.32-57.786-0.16354"/>
  <path d="m443.92 204.14-0.66798-55.468"/>
  <path d="m494.61 205.03c0.58227-30.544 2.8458-48.445-10.655-52.978-8.214-2.758-24.706 2.2412-39.208 16.331"/>
 </g>
 <ellipse cx="372.62" cy="64.116" rx="63.86" ry="64.116" fill="#fc992d" stroke-width="8.6751"/>
</svg>
