<svg xmlns="http://www.w3.org/2000/svg" version="1.1" xmlns:xlink="http://www.w3.org/1999/xlink" xmlns:svgjs="http://svgjs.com/svgjs" width="1440" height="560" preserveAspectRatio="none" viewBox="0 0 1440 560"><g mask="url(&quot;#SvgjsMask1016&quot;)" fill="none"><path d="M-23.31 428.93a41.1 41.1 0 1 0 71.56 40.44z" fill="rgba(0, 78, 100, 1)"></path><path d="M553.74 491.06a47.37 47.37 0 1 0 29.92 89.89z" stroke="rgba(0, 78, 100, 1)"></path><path d="M922.67 190.62a18.06 18.06 0 1 0 34.22 11.58z" stroke="rgba(104, 158, 217, 1)"></path><path d="M462.91 68.43a50.22 50.22 0 1 0 19.73 98.49z" fill="rgba(104, 158, 217, 1)"></path><path d="M1164.93 158.08a28.03 28.03 0 1 0 55.8 5.3z" fill="rgba(104, 158, 217, 1)"></path><path d="M579.37 514.87 a13.19 13.19 0 1 0 26.38 0 a13.19 13.19 0 1 0 -26.38 0z" fill="rgba(104, 158, 217, 1)"></path><path d="M6.29 87.45 a1.92 1.92 0 1 0 3.84 0 a1.92 1.92 0 1 0 -3.84 0z" fill="rgba(0, 78, 100, 1)"></path><path d="M963.51 263.89L988.41 263.89L988.41 265.11L963.51 265.11z" fill="rgba(104, 158, 217, 1)"></path><path d="M39.21 166.35 a48.65 48.65 0 1 0 97.3 0 a48.65 48.65 0 1 0 -97.3 0z" fill="rgba(104, 158, 217, 1)"></path><path d="M369.58 215.71 a55.09 55.09 0 1 0 110.18 0 a55.09 55.09 0 1 0 -110.18 0z" fill="rgba(0, 78, 100, 1)"></path><path d="M-31.8 363.85 a55.83 55.83 0 1 0 111.66 0 a55.83 55.83 0 1 0 -111.66 0z" stroke="rgba(0, 78, 100, 1)"></path><path d="M1060.45 152.36L1068.94 152.36L1068.94 161.33L1060.45 161.33z" fill="rgba(104, 158, 217, 1)"></path><path d="M926.63 471.61L962.02 471.61L962.02 507L926.63 507z" stroke="rgba(104, 158, 217, 1)"></path><path d="M118.53 554.95L124.81 554.95L124.81 561.23L118.53 561.23z" fill="rgba(0, 78, 100, 1)"></path><path d="M1389.32 75.65L1422.75 75.65L1422.75 93.61L1389.32 93.61z" fill="rgba(0, 78, 100, 1)"></path><path d="M1242.84 466.57L1288.53 466.57L1288.53 512.26L1242.84 512.26z" stroke="rgba(104, 158, 217, 1)"></path><path d="M848.79 386.94a26.88 26.88 0 1 0 34.09 41.57z" stroke="rgba(0, 78, 100, 1)"></path><path d="M420.9 459.19 a16.81 16.81 0 1 0 33.62 0 a16.81 16.81 0 1 0 -33.62 0z" stroke="rgba(0, 78, 100, 1)"></path><path d="M658.55 222.95L695.78 222.95L695.78 260.18L658.55 260.18z" stroke="rgba(104, 158, 217, 1)"></path><path d="M1044.52 39.18L1044.82 39.18L1044.82 39.48L1044.52 39.48z" stroke="rgba(104, 158, 217, 1)"></path><path d="M577.38 424.2L585.8 424.2L585.8 432.62L577.38 432.62z" fill="rgba(104, 158, 217, 1)"></path><path d="M944.3 220.15L954.34 220.15L954.34 230.19L944.3 230.19z" stroke="rgba(0, 78, 100, 1)"></path><path d="M686.54 0.54L714.36 0.54L714.36 28.36L686.54 28.36z" fill="rgba(0, 78, 100, 1)"></path><path d="M443.82 98.76L445.91 98.76L445.91 100.85L443.82 100.85z" stroke="rgba(104, 158, 217, 1)"></path><path d="M118.37 309.45L133.17 309.45L133.17 324.25L118.37 324.25z" stroke="rgba(0, 78, 100, 1)"></path><path d="M370.95 412.6L414.22 412.6L414.22 445.1L370.95 445.1z" stroke="rgba(104, 158, 217, 1)"></path><path d="M887.96 534.98L934.69 534.98L934.69 582.04L887.96 582.04z" fill="rgba(104, 158, 217, 1)"></path><path d="M1003.99 522.58L1033.36 522.58L1033.36 551.95L1003.99 551.95z" stroke="rgba(104, 158, 217, 1)"></path><path d="M878.54 499.58 a9.69 9.69 0 1 0 19.38 0 a9.69 9.69 0 1 0 -19.38 0z" fill="rgba(104, 158, 217, 1)"></path><path d="M1079.52 3.75L1115.35 3.75L1115.35 16.82L1079.52 16.82z" fill="rgba(104, 158, 217, 1)"></path><path d="M1382.15 135.51 a28.88 28.88 0 1 0 57.76 0 a28.88 28.88 0 1 0 -57.76 0z" fill="rgba(104, 158, 217, 1)"></path><path d="M239.98 403.24a23.03 23.03 0 1 0 2.25 46z" fill="rgba(104, 158, 217, 1)"></path><path d="M1463.68 173.91a51.05 51.05 0 1 0-97.4-30.61z" stroke="rgba(104, 158, 217, 1)"></path></g><defs><mask id="SvgjsMask1016"><rect width="1440" height="560" fill="#ffffff"></rect></mask></defs></svg>