<svg xmlns="http://www.w3.org/2000/svg" version="1.1" xmlns:xlink="http://www.w3.org/1999/xlink" xmlns:svgjs="http://svgjs.com/svgjs" width="600" height="400" preserveAspectRatio="none" viewBox="0 0 600 400">
    <g mask="url(&quot;#SvgjsMask1012&quot;)" fill="none">
        <path d="M82.24 256.63 a25.84 25.84 0 1 0 51.68 0 a25.84 25.84 0 1 0 -51.68 0z" stroke="rgba(0, 78, 100, 1)"></path>
        <path d="M461.19 98.18 a19.92 19.92 0 1 0 39.84 0 a19.92 19.92 0 1 0 -39.84 0z" fill="rgba(104, 158, 217, 1)"></path>
        <path d="M409.83 200.49 a36.92 36.92 0 1 0 73.84 0 a36.92 36.92 0 1 0 -73.84 0z" fill="rgba(104, 158, 217, 1)"></path>
        <path d="M196.71 60.26 a36.85 36.85 0 1 0 73.7 0 a36.85 36.85 0 1 0 -73.7 0z" stroke="rgba(104, 158, 217, 1)"></path>
        <path d="M437.81 320.06a37.47 37.47 0 1 0-24.41 70.86z" fill="rgba(104, 158, 217, 1)"></path>
        <path d="M437.8 318.42a36.78 36.78 0 1 0-0.24 73.56z" stroke="rgba(104, 158, 217, 1)"></path>
        <path d="M21.49 146.85a6.62 6.62 0 1 0-0.34-13.24z" fill="rgba(0, 78, 100, 1)"></path>
        <path d="M-18.38 237.33a21.34 21.34 0 1 0 39.13-17.04z" fill="rgba(104, 158, 217, 1)"></path>
        <path d="M345.23 367.42L349.83 367.42L349.83 372.02L345.23 372.02z" fill="rgba(104, 158, 217, 1)"></path>
        <path d="M178.58 161.09L204.44 161.09L204.44 186.95L178.58 186.95z" fill="rgba(0, 78, 100, 1)"></path>
        <path d="M526.22 136.94a37.9 37.9 0 1 0 67.82 33.86z" stroke="rgba(0, 78, 100, 1)"></path>
        <path d="M272.98 71.98L276.27 71.98L276.27 75.27L272.98 75.27z" fill="rgba(0, 78, 100, 1)"></path>
        <path d="M241.01 324.65L247.78 324.65L247.78 335.72L241.01 335.72z" stroke="rgba(0, 78, 100, 1)"></path>
        <path d="M45.33 345.34a12.72 12.72 0 1 0-7.02 24.45z" stroke="rgba(0, 78, 100, 1)"></path>
        <path d="M525.54 170.95L534.95 170.95L534.95 202.63L525.54 202.63z" stroke="rgba(104, 158, 217, 1)"></path>
        <path d="M505.97 294.77L539.68 294.77L539.68 332.51L505.97 332.51z" fill="rgba(104, 158, 217, 1)"></path>
        <path d="M72.55 232.66L74.98 232.66L74.98 235.09L72.55 235.09z" stroke="rgba(104, 158, 217, 1)"></path>
        <path d="M182.15 233.95L200.94 233.95L200.94 268.16L182.15 268.16z" fill="rgba(104, 158, 217, 1)"></path>
        <path d="M338.14 318.06L373.07 318.06L373.07 318.58L338.14 318.58z" fill="rgba(104, 158, 217, 1)"></path>
    </g>
    <defs>
        <mask id="SvgjsMask1012">
            <rect width="600" height="400" fill="#ffffff"></rect>
        </mask>
    </defs>
</svg>