<svg xmlns="http://www.w3.org/2000/svg" version="1.1" xmlns:xlink="http://www.w3.org/1999/xlink" xmlns:svgjs="http://svgjs.com/svgjs" width="2000" height="600" preserveAspectRatio="none" viewBox="0 0 2000 600"><g mask="url(&quot;#SvgjsMask1001&quot;)" fill="none"><path d="M1650.905,362.91C1675.731,361.462,1689.357,337.116,1702.127,315.777C1715.441,293.529,1733.011,268.711,1721.042,245.711C1708.565,221.735,1677.907,216.169,1650.905,217.352C1626.203,218.434,1603.337,230.193,1590.662,251.423C1577.65,273.216,1576.106,300.094,1588.172,322.424C1600.853,345.892,1624.275,364.463,1650.905,362.91" fill="rgba(28, 113, 205, 0.4)" class="triangle-float3"></path><path d="M869.937,639.368C896.958,639.598,926.345,631.237,938.299,607.003C949.461,584.374,933.335,560.019,919.48,538.931C907.468,520.649,891.803,503.578,869.937,502.953C847.122,502.301,827.606,516.771,815.234,535.951C801.51,557.229,791.725,583.473,803.564,605.855C815.985,629.336,843.374,639.142,869.937,639.368" fill="rgba(28, 113, 205, 0.4)" class="triangle-float2"></path><path d="M1012.952,645.754C1068.696,646.376,1119.616,617.557,1149.718,570.636C1182.668,519.274,1200.439,453.893,1169.949,401.033C1139.443,348.145,1073.913,330.139,1012.952,333.528C958.027,336.582,910.49,369.002,883.538,416.957C857.158,463.893,854.862,520.78,881.37,567.644C908.285,615.228,958.286,645.144,1012.952,645.754" fill="rgba(28, 113, 205, 0.4)" class="triangle-float1"></path><path d="M1680.14 171.73 a109.78 109.78 0 1 0 219.56 0 a109.78 109.78 0 1 0 -219.56 0z" fill="rgba(28, 113, 205, 0.4)" class="triangle-float1"></path><path d="M1838.224,545.855C1873.669,547.227,1911.98,541.364,1931.458,511.718C1952.565,479.593,1950.273,437.582,1931.345,404.126C1912.119,370.143,1877.26,346.095,1838.224,346.923C1800.409,347.725,1769.043,374.322,1751.703,407.937C1735.792,438.782,1738.261,475.554,1756.705,504.955C1774.021,532.557,1805.664,544.595,1838.224,545.855" fill="rgba(28, 113, 205, 0.4)" class="triangle-float1"></path><path d="M661.06 501.67 a179.36 179.36 0 1 0 358.72 0 a179.36 179.36 0 1 0 -358.72 0z" fill="rgba(28, 113, 205, 0.4)" class="triangle-float3"></path><path d="M82.29 188.13 a107.71 107.71 0 1 0 215.42 0 a107.71 107.71 0 1 0 -215.42 0z" fill="rgba(28, 113, 205, 0.4)" class="triangle-float2"></path><path d="M787.582,589.802C818.772,590.317,850.257,578.077,865.82,551.043C881.355,524.058,875.838,490.869,859.954,464.088C844.426,437.909,818.009,419.956,787.582,419.135C755.671,418.274,723.949,432.272,708.119,459.994C692.403,487.517,697.145,521.501,713.692,548.532C729.479,574.321,757.349,589.303,787.582,589.802" fill="rgba(28, 113, 205, 0.4)" class="triangle-float2"></path><path d="M1521.93,269.037C1544.473,269.822,1566.778,260.41,1578.601,241.2C1590.979,221.087,1592.049,195.259,1579.739,175.104C1567.882,155.69,1544.652,147.306,1521.93,148.409C1501.117,149.419,1483.32,162.13,1473.085,180.28C1463.045,198.085,1461.851,219.57,1471.706,237.478C1481.923,256.044,1500.751,268.3,1521.93,269.037" fill="rgba(28, 113, 205, 0.4)" class="triangle-float3"></path><path d="M1394.61 467.29 a192.7 192.7 0 1 0 385.4 0 a192.7 192.7 0 1 0 -385.4 0z" fill="rgba(28, 113, 205, 0.4)" class="triangle-float2"></path><path d="M730.94 463.85 a171.71 171.71 0 1 0 343.42 0 a171.71 171.71 0 1 0 -343.42 0z" fill="rgba(28, 113, 205, 0.4)" class="triangle-float2"></path><path d="M191.006,329.411C245.744,331.826,303.945,310.352,328.431,261.337C351.29,215.578,323.439,164.419,294.496,122.244C270.195,86.833,233.786,64.872,191.006,61.085C138.905,56.473,77.725,56.23,50.037,100.606C21.436,146.446,44.749,204.072,73.091,250.073C99.725,293.302,140.28,327.173,191.006,329.411" fill="rgba(28, 113, 205, 0.4)" class="triangle-float1"></path><path d="M1649.365,550.724C1671.961,550.07,1691.039,533.947,1700.453,513.395C1708.54,495.74,1700.597,476.743,1690.979,459.873C1681.232,442.776,1669.045,423.792,1649.365,423.783C1629.676,423.774,1617.924,443.019,1607.682,459.834C1596.796,477.706,1584.16,497.487,1592.884,516.509C1602.719,537.953,1625.783,551.407,1649.365,550.724" fill="rgba(28, 113, 205, 0.4)" class="triangle-float2"></path><path d="M1075.69 584.68 a180.71 180.71 0 1 0 361.42 0 a180.71 180.71 0 1 0 -361.42 0z" fill="rgba(28, 113, 205, 0.4)" class="triangle-float1"></path><path d="M-38.39 564.96 a186.66 186.66 0 1 0 373.32 0 a186.66 186.66 0 1 0 -373.32 0z" fill="rgba(28, 113, 205, 0.4)" class="triangle-float3"></path><path d="M411.47 508.94 a121.32 121.32 0 1 0 242.64 0 a121.32 121.32 0 1 0 -242.64 0z" fill="rgba(28, 113, 205, 0.4)" class="triangle-float3"></path><path d="M1139.653,308.02C1185.652,307.061,1224.053,277.445,1247.734,237.999C1272.254,197.156,1283.058,147.743,1261.322,105.353C1237.751,59.383,1191.313,26.853,1139.653,27.213C1088.531,27.569,1045.149,62.03,1020.885,107.028C997.879,149.693,998.811,200.946,1023.47,242.677C1047.697,283.676,1092.041,309.013,1139.653,308.02" fill="rgba(28, 113, 205, 0.4)" class="triangle-float1"></path><path d="M76.68 506.64 a137.79 137.79 0 1 0 275.58 0 a137.79 137.79 0 1 0 -275.58 0z" fill="rgba(28, 113, 205, 0.4)" class="triangle-float3"></path><path d="M882.15 34.08 a181.27 181.27 0 1 0 362.54 0 a181.27 181.27 0 1 0 -362.54 0z" fill="rgba(28, 113, 205, 0.4)" class="triangle-float3"></path></g><defs><mask id="SvgjsMask1001"><rect width="2000" height="600" fill="#ffffff"></rect></mask><style>
            @keyframes float1 {
                0%{transform: translate(0, 0)}
                50%{transform: translate(-10px, 0)}
                100%{transform: translate(0, 0)}
            }

            .triangle-float1 {
                animation: float1 5s infinite;
            }

            @keyframes float2 {
                0%{transform: translate(0, 0)}
                50%{transform: translate(-5px, -5px)}
                100%{transform: translate(0, 0)}
            }

            .triangle-float2 {
                animation: float2 4s infinite;
            }

            @keyframes float3 {
                0%{transform: translate(0, 0)}
                50%{transform: translate(0, -10px)}
                100%{transform: translate(0, 0)}
            }

            .triangle-float3 {
                animation: float3 6s infinite;
            }
        </style></defs></svg>